# xmcd
# Track frame offsets:
# 150
# 17342
# 34634
# 54075
# 71312
# 90366
# 109582
# 125618
# 139313
# 156705
# 174806
# 192905
# 208952
# 223025
# 237043
#
# Disc length: 3479 seconds
# Revision: 0
# Processed by: cddbd v1.5.1PL0 Copyright (c) Steve Scherf et al.
# Submitted via: VisiTrax 2.9.10.228 - For more info visit www.synapsa.com
#
DISCID=c60d950f
DTITLE=Various Artist - CB60316
DYEAR=1900
DGENRE=Karaoke
TTITLE0=McComas, Brian - You're In My Head
TTITLE1=Dean, Billy - I'm In Love With You
TTITLE2=Mason, Mila - Maybe, Maybe Not
TTITLE3=Bates, Jeff - Rainbow Man
TTITLE4=Evans, Sara - Perfect
TTITLE5=Wayne, Jimmy - I Love You This Much
TTITLE6=Adkins, Trace - Hot Mama
TTITLE7=Denney, Kevin - Walk Out Of The Rain
TTITLE8=Wariner, Steve & Lee Roy - Carmelita
TTITLE9=Tennison, Chalee - Parading In The Rain
TTITLE10=Otto, James - Days Of Our Lives
TTITLE11=Drake, Dusty - Smaller Pieces
TTITLE12=Ashton, Susan - She Is
TTITLE13=Nichols, Joe - Cool To Be A Fool
TTITLE14=Montgomery, John - Cool
EXTD=
EXTT0=
EXTT1=
EXTT2=
EXTT3=
EXTT4=
EXTT5=
EXTT6=
EXTT7=
EXTT8=
EXTT9=
EXTT10=
EXTT11=
EXTT12=
EXTT13=
EXTT14=
PLAYORDER=
